<?xml version="1.0" encoding="UTF-8" standalone="no"?>
<!-- Created with Inkscape (http://www.inkscape.org/) -->

<svg
   xmlns:osb="http://www.openswatchbook.org/uri/2009/osb"
   xmlns:dc="http://purl.org/dc/elements/1.1/"
   xmlns:cc="http://creativecommons.org/ns#"
   xmlns:rdf="http://www.w3.org/1999/02/22-rdf-syntax-ns#"
   xmlns:svg="http://www.w3.org/2000/svg"
   xmlns="http://www.w3.org/2000/svg"
   xmlns:sodipodi="http://sodipodi.sourceforge.net/DTD/sodipodi-0.dtd"
   xmlns:inkscape="http://www.inkscape.org/namespaces/inkscape"
   width="240"
   height="240"
   viewBox="0 0 240 240"
   id="svg5625"
   version="1.1"
   inkscape:version="0.91 r13725"
   sodipodi:docname="logo-320pxWhite.svg"
   inkscape:export-filename="/Users/Renata/Sites/Web dev/aufem/img/logowhite02.png"
   inkscape:export-xdpi="90"
   inkscape:export-ydpi="90">
  <defs
     id="defs5627">
    <linearGradient
       id="linearGradient4273"
       osb:paint="solid">
      <stop
         style="stop-color:#691a99;stop-opacity:1;"
         offset="0"
         id="stop4275" />
    </linearGradient>
  </defs>
  <sodipodi:namedview
     id="base"
     pagecolor="#ffffff"
     bordercolor="#666666"
     borderopacity="1.0"
     inkscape:pageopacity="1"
     inkscape:pageshadow="2"
     inkscape:zoom="1"
     inkscape:cx="-103.5"
     inkscape:cy="177.575"
     inkscape:document-units="px"
     inkscape:current-layer="layer3"
     showgrid="true"
     units="px"
     objecttolerance="10000"
     inkscape:snap-global="true"
     inkscape:window-width="1280"
     inkscape:window-height="701"
     inkscape:window-x="0"
     inkscape:window-y="1"
     inkscape:window-maximized="1"
     gridtolerance="10000"
     showguides="false"
     inkscape:guide-bbox="true">
    <inkscape:grid
       type="xygrid"
       id="grid5633"
       spacingx="0.5"
       spacingy="0.5" />
    <sodipodi:guide
       position="57.5,52.5"
       orientation="0,1"
       id="guide9461" />
  </sodipodi:namedview>
  <metadata
     id="metadata5630">
    <rdf:RDF>
      <cc:Work
         rdf:about="">
        <dc:format>image/svg+xml</dc:format>
        <dc:type
           rdf:resource="http://purl.org/dc/dcmitype/StillImage" />
        <dc:title />
      </cc:Work>
    </rdf:RDF>
  </metadata>
  <g
     inkscape:groupmode="layer"
     id="layer1"
     inkscape:label="Layer 4" />
  <g
     inkscape:groupmode="layer"
     id="layer3"
     inkscape:label="Layer 3"
     style="display:inline"
     transform="translate(0,120)">
    <path
       id="rect9463"
       style="fill:#9b26af;fill-opacity:1;stroke:none;stroke-width:3;stroke-miterlimit:4;stroke-dasharray:none"
       d="m 100.31537,3.620899 8.31155,0 0,8.727864 -8.31155,0 z m 94.74079,-92.150139 c -0.58804,0.0207 -1.1754,0.10641 -1.7597,0.24207 -5.42402,1.67392 -11.18695,6.86886 -15.18482,9.573373 -1.07666,0.908886 -2.09105,1.913688 -3.03891,3.000203 -0.95386,1.157629 -1.83106,2.40162 -2.64931,3.692295 -0.88603,1.371119 -1.64695,2.841944 -2.34736,4.350295 -0.79127,1.622381 -1.48794,3.302505 -2.14932,5.001475 -0.65366,1.77711 -1.23638,3.588463 -1.78244,5.414004 -0.52536,1.836846 -0.98404,3.701468 -1.38309,5.581059 -0.056,0.27606 -0.0892,0.5578 -0.1396,0.835284 -1.67176,0.01606 -3.34531,-0.01118 -5.01615,-0.105694 -2.89136,-0.197501 -5.78377,-0.424408 -8.6557,-0.876195 -2.69707,-0.458694 -5.3914,-0.93464 -8.07129,-1.517149 -2.59593,-0.558407 -5.18986,-1.147718 -7.76611,-1.820577 -2.45008,-0.652224 -4.88808,-1.358113 -7.32455,-2.076278 -2.22137,-0.686955 -4.42219,-1.451476 -6.62651,-2.209241 -1.99712,-0.690401 -3.99209,-1.39331 -6.0129,-1.984224 -1.88966,-0.570757 -3.77445,-1.166329 -5.67197,-1.701253 -1.76869,-0.479387 -3.52932,-1.010213 -5.3116,-1.418278 -1.71531,-0.381418 -3.43916,-0.682552 -5.171996,-0.934154 -1.761331,-0.24151 -3.524102,-0.488927 -5.295368,-0.606859 -1.809603,-0.100527 -3.619368,-0.203025 -5.431727,-0.184103 -1.871,0.06457 -3.742809,0.151324 -5.607049,0.357978 -1.879837,0.280912 -3.75608,0.6517 -5.58757,1.227356 -1.805538,0.606506 -3.598855,1.251469 -5.334328,2.100142 -5.935444,2.758222 -11.233896,5.962507 -16.658813,10.476846 -1.330051,1.022506 -2.635862,2.08858 -3.934999,3.163851 -1.183059,1.009678 -2.320864,2.086457 -3.425268,3.211582 -1.094115,1.098704 -2.202673,2.18066 -3.360334,3.187716 -1.071286,0.961444 -2.161176,1.896466 -3.181765,2.932016 -0.900141,0.932604 -1.799852,1.876297 -2.571386,2.959292 -0.563847,0.795498 -1.099404,1.614117 -1.571402,2.488805 -0.314178,0.551697 -0.676344,1.05269 -1.029204,1.568289 -0.22379,0.325736 -0.386768,0.709786 -0.607133,1.029613 l 13.087445,-6.692498 c 0.108815,-0.337431 0.362087,-0.590983 0.542199,-0.883013 0.371779,-0.483211 0.599966,-1.089913 0.892841,-1.639885 0.456756,-0.787636 0.988027,-1.513398 1.532444,-2.219469 0.79004,-0.958424 1.651701,-1.826274 2.529178,-2.672908 1.055592,-0.935346 2.104593,-1.887627 3.155791,-2.829738 1.139693,-1.040607 2.214828,-2.167519 3.318127,-3.259311 0.491003,-0.497076 1.00133,-0.96494 1.516208,-1.425095 1.437248,-0.670012 2.890268,-1.286643 4.370058,-1.81717 1.781852,-0.669125 3.620422,-1.065276 5.464194,-1.411459 1.823261,-0.314474 3.666599,-0.413469 5.506402,-0.487534 1.785002,-0.06139 3.570677,-0.0032 5.353808,0.09547 1.748237,0.08487 3.489959,0.288878 5.227185,0.525035 1.716519,0.248012 3.430376,0.514968 5.136278,0.848921 1.783308,0.361955 3.540937,0.858012 5.305106,1.326227 1.910618,0.51065 3.813688,1.06331 5.714188,1.622836 2.0274,0.590122 4.03595,1.26212 6.05185,1.902402 2.23246,0.764266 4.47696,1.472666 6.72717,2.161509 2.46149,0.752343 4.94253,1.417011 7.42519,2.06605 2.5872,0.683121 5.18966,1.287118 7.79533,1.864899 2.70867,0.57076 5.42911,1.063258 8.15246,1.527376 2.91831,0.485234 5.86163,0.707819 8.8018,0.917108 2.99965,0.224079 6.00367,0.22291 9.00634,0.109098 1.92555,-0.120618 3.81238,-0.533984 5.67849,-1.063708 -0.13125,1.794533 -0.24121,3.592652 -0.33766,5.390138 l -0.39286,8.025544 c -0.15572,2.596201 -0.3375,5.190655 -0.52921,7.783482 -0.1966,2.498238 -0.3549,5.000105 -0.52921,7.500507 -0.18882,2.525833 -0.33383,5.053163 -0.52272,7.578923 -0.18566,2.585509 -0.34262,5.176112 -0.51298,7.763027 -0.17623,2.592285 -0.35982,5.182853 -0.55518,7.773254 -0.19658,2.544499 -0.45656,5.081512 -0.74999,7.613015 -0.31734,2.51985 -0.70208,5.02649 -1.1266,7.524374 -0.43974,2.490496 -1.01529,4.945337 -1.61686,7.388001 -0.61609,2.413118 -1.27577,4.808112 -1.94802,7.200488 -0.65756,2.333607 -1.34949,4.6541 -2.09412,6.951607 -0.74423,2.301442 -1.53211,4.583954 -2.36684,6.842508 -0.7861,2.157735 -1.66452,4.262875 -2.58113,6.348157 -0.84089,1.916936 -1.77175,3.778645 -2.69476,5.642428 -0.84659,1.850962 -1.94066,3.510922 -3.06164,5.141259 -1.19623,1.693231 -2.52517,3.24824 -3.89929,4.742364 -0.40438,0.454476 -0.82919,0.878616 -1.26296,1.288721 -1.02709,0.46228 -2.06845,0.882178 -3.11359,1.285318 -2.19756,0.844996 -4.45835,1.424613 -6.72066,1.973998 -2.355,0.574415 -4.74037,0.934492 -7.13625,1.16599 -2.37675,0.199135 -4.76077,0.259423 -7.14273,0.296606 -2.29028,0.03088 -4.58006,-0.05047 -6.86678,-0.190911 -2.20867,-0.154662 -4.40985,-0.418663 -6.603781,-0.75006 C 97.106335,78.966331 94.930332,78.409615 92.768911,77.780896 90.403628,77.09759 88.090515,76.202705 85.782014,75.298918 83.388405,74.328431 81.012253,73.285905 78.697716,72.080517 76.370031,70.841719 74.217254,69.233586 72.191331,67.419966 69.956212,65.34261 68.024816,62.873908 66.136237,60.383125 64.310805,57.944328 62.568674,55.421769 60.873337,52.858752 59.361969,50.566406 57.926962,48.20725 56.51302,45.832138 55.253427,43.729422 54.100313,41.543111 52.974118,39.340789 52.448392,38.325929 51.930377,37.30751 51.409209,36.289446 L 35.428948,32.061889 c -0.08251,0.04132 2.736577,9.935607 5.915486,15.178302 1.183623,2.203346 2.376311,4.399519 3.681757,6.508394 1.456965,2.378327 2.959415,4.71946 4.512912,7.012977 1.749399,2.561034 3.536891,5.084167 5.396015,7.53801 1.941655,2.536649 3.89217,5.079966 6.077821,7.336852 2.051289,1.949543 4.25654,3.656731 6.642746,5.001488 2.323904,1.272118 4.723606,2.312217 7.126506,3.361589 2.307944,0.956697 4.636474,1.837339 6.990143,2.628588 2.171755,0.680669 4.353126,1.359957 6.587552,1.69785 2.22869,0.350262 4.463708,0.6206 6.707682,0.797775 2.307228,0.184417 4.61861,0.290112 6.931702,0.276149 2.41628,-0.01934 4.83111,-0.105256 7.24338,-0.272744 2.40971,-0.162862 4.81548,-0.422221 7.1882,-0.961426 2.27333,-0.510062 4.54266,-1.066912 6.77261,-1.796719 2.11712,-0.768541 4.22999,-1.574525 6.25314,-2.642225 5.87147,-3.134211 11.3647,-7.180376 16.77246,-11.288267 1.58281,-1.280534 3.10091,-2.659118 4.46096,-4.258236 1.35324,-1.567363 2.67018,-3.184274 3.8311,-4.953745 1.1138,-1.707051 2.16451,-3.467831 3.01943,-5.373091 0.90401,-1.873389 1.79586,-3.755014 2.60061,-5.690159 0.87556,-2.108786 1.72197,-4.233673 2.48372,-6.402705 0.81541,-2.280115 1.59597,-4.576464 2.33113,-6.89365 0.73905,-2.316511 1.42487,-4.655231 2.06166,-7.012975 0.65906,-2.412992 1.32874,-4.821897 1.92204,-7.258445 0.57673,-2.47892 1.12956,-4.968026 1.55193,-7.490281 0.4147,-2.530644 0.7956,-5.071117 1.10063,-7.6232438 0.27091,-2.5481332 0.51903,-5.0981092 0.70128,-7.6573372 0.19237,-2.596519 0.36922,-5.195649 0.54545,-7.79371 0.15867,-2.589032 0.34428,-5.174279 0.5422,-7.759618 0.17109,-2.529485 0.33931,-5.058057 0.52921,-7.58574 0.17883,-2.496465 0.3383,-4.997115 0.51623,-7.493689 0.17965,-2.59651 0.33393,-5.193887 0.47402,-7.79371 0.13257,-2.668383 0.23963,-5.337407 0.38311,-8.005089 0.0632,-1.088069 0.14193,-2.177202 0.23051,-3.26272 6.13344,-3.620411 12.13414,-7.581319 17.88607,-11.976948 1.85215,-1.435298 3.5746,-3.085713 5.20121,-4.851464 1.378,-1.523577 2.63976,-3.176734 3.82786,-4.902606 1.00769,-1.50807 1.88875,-3.116834 2.59086,-4.844647 0.56391,-1.388753 0.94777,-2.853949 1.04219,-4.387796 0.057,-1.420739 -0.38298,-2.658537 -0.98374,-3.855947 -0.53696,-1.05668 -1.21043,-1.99187 -1.96425,-2.84337 -0.83483,-0.94654 -1.86898,-1.4832 -2.94801,-1.92967 -1.08153,-0.46061 -2.20773,-0.70876 -3.34086,-0.91711 -0.59005,-0.12387 -1.18141,-0.1707 -1.76945,-0.15002 z m -9.49984,9.522241 c 1.05349,0.137917 2.11397,0.309594 3.1363,0.640952 0.90603,0.337981 1.81829,0.660209 2.55191,1.404641 0.68261,0.711897 1.3124,1.488054 1.78569,2.41039 0.45217,0.913789 0.71681,1.849057 0.58117,2.92179 -0.19553,1.328572 -0.57683,2.597781 -1.11038,3.794575 -0.73302,1.578856 -1.59615,3.069235 -2.57787,4.452574 -1.18691,1.631342 -2.43567,3.206547 -3.80189,4.636678 -0.88635,0.902056 -1.7932,1.770889 -2.73048,2.597902 -1.91005,1.015955 -3.8443,1.962658 -5.84406,2.717231 -0.4899,0.183818 -0.98481,0.358617 -1.47724,0.535262 0.26949,-1.902066 0.5709,-3.79825 1.00647,-5.659473 0.4261,-1.832984 0.88457,-3.656591 1.43504,-5.444688 0.56491,-1.788917 1.14811,-3.57207 1.85712,-5.291268 0.68528,-1.661112 1.40214,-3.306485 2.21425,-4.888967 0.76462,-1.453481 1.58524,-2.860938 2.50645,-4.186647 0.15195,-0.217202 0.31336,-0.425587 0.46752,-0.640952 z m -6.146,2.199012 c -3.5628,2.320026 -2.37761,1.446688 0,0 z"
       inkscape:connector-curvature="0" />
  </g>
</svg>
